<?xml version="1.0" encoding="utf-8" ?><svg xmlns="http://www.w3.org/2000/svg" xmlns:xlink="http://www.w3.org/1999/xlink" width="1024" height="1024" viewBox="0 0 1024 1024"><path transform="scale(2 2)" d="M92.5771 285.201C80.0771 284.074 66.2861 287.918 55.1719 279.836C42.4999 270.62 44.7951 255.43 44.8011 241.733L44.8007 163.598C44.8022 142.475 43.4014 120.663 70.3774 116.718C83.8195 116.454 97.3147 116.723 110.763 116.724L233.906 116.709C246.126 116.704 260.019 114.49 269.941 123.322C282.446 134.452 279.017 153.286 279.018 168.651L279.017 247.351C279.022 258.167 279.999 267.874 272.133 276.569C263.564 286.041 254.711 284.608 243.242 285.201C243.182 296.304 242.879 307.251 256.129 310.957C261.439 312.443 279.941 311.75 286.478 311.749L343.948 311.736C370.128 311.734 362.043 308.544 375.952 331.781L398.806 370.184C401.562 361.432 408 316.878 410.657 313.325C415.605 306.71 454.221 321.868 456.878 297.28C457.229 294.039 457.102 290.683 457.103 287.424L457.126 168.882C457.149 159.478 456.665 150.903 446.025 147.106C441.543 145.506 420.115 146.25 413.846 146.248L311.41 146.25C307.715 146.25 296.398 147.424 293.496 144.985C291.335 143.167 291.211 139.379 293.143 137.351C295.631 134.739 301.109 135.96 304.282 135.988L378.284 135.962L422.98 135.969C429.588 135.969 440.583 135.196 446.694 136.58C459.47 139.472 467.346 150.899 467.44 163.732L467.424 283.485C467.462 310.321 462.679 322.344 433.343 322.305L418.891 322.292C415.822 337.981 413.106 353.777 410.184 369.497L408.193 380.517C405.215 397.353 399.633 393.029 392.977 381.896L370.205 343.165C366.13 336.201 362.256 329.124 357.956 322.292L269.137 322.306C241.57 322.311 232.488 312.7 232.556 285.201L155.672 285.201C150.967 291.163 147.387 298.532 143.604 305.118L124.633 337.769C122.488 341.407 119.237 351.369 114.292 351.766C108.55 352.226 107.89 342.978 106.805 339.05L95.887 299.864C94.569 295.116 92.7351 290.146 92.5771 285.201ZM74.391 127.028C53.3875 128.193 54.9495 143.984 54.9522 159.977L54.9525 234.776C54.9541 242.857 54.6091 251.115 55.1014 259.172C56.2942 278.693 76.3778 274.814 89.8985 274.801C103.779 274.789 101.115 279.781 104.536 292.547C107.86 304.949 111.572 320.667 115.642 332.612C117.989 328.897 120.096 325.036 122.339 321.258L138.468 293.713C149.894 273.924 143.833 274.765 165.05 274.796L192.506 274.804L234.76 274.795C262.369 274.808 268.613 276.486 268.622 248.223L268.639 145.681C268.566 125.056 251.791 127.02 236.793 127.019L74.391 127.028Z"/><path transform="scale(2 2)" d="M414.438 253.629C377.274 301.718 306.838 276.201 298.735 220.743C297.368 211.39 298.092 201.417 298.105 191.963C298.113 185.751 295.508 175.048 302.322 172.576C306.954 172.206 312.305 174.381 316.731 175.506L332.629 179.445C342.747 181.934 353.419 183.955 363.267 187.386C367.617 186.114 372.081 185.194 376.489 184.149L396.505 179.267C403.659 177.478 418.12 172.841 425.126 172.576C432.136 175.935 429.425 189.204 429.426 196.35C429.427 218.78 429.491 234.465 414.438 253.629ZM308.331 184.739L308.313 202.69C308.3 207.101 308.111 211.586 308.608 215.975C311.71 243.327 332.014 262.209 357.956 268.391L357.933 246.321C357.932 242.82 356.665 234.599 359.333 231.828C362.405 228.638 367.968 230.292 368.457 234.697C368.862 238.342 368.556 242.332 368.548 246.012L368.519 268.391C375.098 267.293 381.676 265.312 387.592 262.183C420.946 244.575 418.933 216.868 418.891 184.739C406.225 187.65 393.629 190.896 380.998 193.957C364.629 197.924 368.422 198.9 352.955 195.327C339.971 192.327 321.019 186.161 308.331 184.739Z"/><path transform="scale(2 2)" d="M92.5771 210.19C88.9272 223.589 84.1577 218.351 85.1471 214.311C86.5406 208.62 95.3148 181.976 98.1652 180.284C104.162 179.967 108.368 198.683 110.188 203.977C111.191 206.897 116.764 217.637 111.368 218.718C107.651 219.464 106.726 212.542 106.164 210.19L100.483 210.19L92.5771 210.19ZM99.2506 190.886C97.6662 195.369 96.0462 199.842 94.7542 204.421L100.483 204.421C101.629 204.417 102.783 204.383 103.928 204.421C103.197 201.849 100.706 192.493 99.2506 190.886Z"/><path transform="scale(2 2)" d="M132.936 193.177C132.725 196.89 133.697 215.695 132.364 217.562C130.786 219.769 127.432 218.679 127.131 216.117C126.482 210.582 125.906 182.707 128.963 180.284C134.95 180.151 144.048 200.503 147.094 205.955C147.088 202.25 146.523 182.917 147.901 181.255C149.911 178.831 152.679 181.134 152.906 183.568C153.382 188.686 154.228 215.802 151.594 218.924C145.122 219.365 135.815 198.961 132.936 193.177Z"/><path transform="scale(2 2)" d="M217.268 195.013L217.276 208.884C217.274 210.522 217.664 223.236 212.248 218.367C210.247 216.569 210.37 182.328 212.667 180.284C218.167 179.59 227.304 200.584 230.706 205.955L230.688 192.226C230.661 189.212 229.021 179.593 234.205 180.286C237.828 180.771 236.706 187.955 236.702 190.419L236.693 204.125C236.693 207.825 237.162 213.836 236.686 217.217C230.61 221.843 227.78 213.325 225.338 209.129C222.61 204.441 219.82 199.8 217.268 195.013Z"/><path transform="scale(2 2)" d="M184.592 218.924C165.562 221.777 159.591 186.752 180.23 180.284C183.387 180.649 186.831 180.882 189.597 182.612C199.254 188.654 200.826 215.324 184.592 218.924ZM181.724 187.386C179.791 187.492 178.337 187.433 176.953 188.98C172.479 193.978 171.121 212.614 182.825 212.89C194.792 211.445 192.31 183.794 181.724 187.386Z"/><path transform="scale(2 2)" d="M336.502 216.424C330.481 215.827 328.016 216.261 322.88 219.563C311.416 226.935 308.373 206.319 330.909 205.955C340.613 202.734 360.08 213.66 350.59 220.391C346.273 223.453 342.456 217.301 336.502 216.424Z"/><path transform="scale(2 2)" d="M395.423 216.424C385.025 215.645 382.909 221.177 378.538 221.209C370.589 221.266 371.287 205.653 391.942 205.955C402.494 203.955 420.369 213.356 410.975 220.669C407.814 223.129 401.47 217.026 395.423 216.424Z"/></svg>